<svg width="24" height="24" viewBox="0 0 24 24" fill="none" xmlns="http://www.w3.org/2000/svg">
<g clip-path="url(#clip0_503_1820)">
<path d="M24 12C24 18.63 18.63 24 12 24C5.37 24 0 18.63 0 12C0 5.37 5.37 0 12 0C18.63 0 24 5.37 24 12Z" fill="url(#paint0_linear_503_1820)"/>
<path d="M9.79995 17.5C9.40995 17.5 9.47995 17.35 9.33995 16.98L8.19995 13.22L15.28 8.8L16.11 9.02L15.42 10.9L9.79995 17.5Z" fill="#C8DAEA"/>
<path d="M9.80005 17.5C10.1 17.5 10.23 17.36 10.4 17.2C10.66 16.95 14 13.7 14 13.7L11.95 13.2L10.05 14.4L9.80005 17.4V17.5Z" fill="#A9C9DD"/>
<path d="M10.0001 14.44L14.8401 18.01C15.3901 18.31 15.7901 18.16 15.9301 17.5L17.9001 8.22C18.1001 7.41 17.5901 7.05 17.0601 7.29L5.50006 11.75C4.71006 12.07 4.72006 12.51 5.36006 12.7L8.33006 13.63L15.2001 9.3C15.5201 9.1 15.8201 9.21 15.5801 9.43L10.0001 14.44Z" fill="url(#paint1_linear_503_1820)"/>
</g>
<defs>
<linearGradient id="paint0_linear_503_1820" x1="15.517" y1="3.793" x2="9.517" y2="17.7928" gradientUnits="userSpaceOnUse">
<stop stop-color="#37AEE2"/>
<stop offset="1" stop-color="#1E96C8"/>
</linearGradient>
<linearGradient id="paint1_linear_503_1820" x1="12.8992" y1="12.3755" x2="15.3992" y2="16.3755" gradientUnits="userSpaceOnUse">
<stop stop-color="#EFF7FC"/>
<stop offset="1" stop-color="white"/>
</linearGradient>
<clipPath id="clip0_503_1820">
<rect width="24" height="24" fill="white"/>
</clipPath>
</defs>
</svg>
