<svg width="24" height="24" viewBox="0 0 24 24" fill="none" xmlns="http://www.w3.org/2000/svg">
<path d="M6.32019 20.7568L6.71234 20.9514C8.31135 21.8953 10.1394 22.3886 11.9999 22.3784C17.7273 22.3654 22.4331 17.6841 22.4331 12.0001C22.4331 9.25308 21.3338 6.61504 19.3789 4.67039C17.4266 2.70565 14.7594 1.59842 11.9796 1.59842C6.27836 1.59842 1.58752 6.2544 1.58752 11.9119C1.58752 11.9566 1.58752 12.0007 1.58818 12.0455C1.60535 13.969 2.14744 15.8519 3.15681 17.4941L3.41823 17.8833L2.37249 21.7103L6.32019 20.7568Z" fill="#00E676"/>
<path d="M20.5424 3.50285C18.3169 1.24944 15.2639 -0.0147444 12.0849 0.000129786H12.0646C5.51763 0.000150106 0.130077 5.34695 0.130077 11.8444C0.130077 11.8749 0.130733 11.9047 0.130733 11.9352C0.155393 14.001 0.694253 16.0287 1.69936 17.8379L0 24L6.33331 22.3784C8.08289 23.3317 10.0498 23.823 12.0457 23.8054C18.6169 23.7697 24.0038 18.3925 23.9999 11.8704C24.0155 8.73675 22.7705 5.72315 20.5424 3.50285ZM12.0849 21.7946C10.3157 21.8038 8.5777 21.3327 7.05878 20.4325L6.66662 20.2379L2.8954 21.2108L3.87578 17.5136L3.61436 17.1244C2.64325 15.5682 2.12877 13.7741 2.12874 11.9436C2.12874 6.54564 6.60454 2.10369 12.0437 2.10369C17.4829 2.10369 21.9587 6.54564 21.9587 11.9436C21.9587 15.3425 20.1842 18.5092 17.2744 20.3027C15.7355 21.2811 13.9452 21.799 12.1176 21.7946M17.8627 14.5947L17.1437 14.2703C17.1437 14.2703 16.0979 13.8163 15.4444 13.492C15.379 13.492 15.3136 13.4271 15.2483 13.4271C15.0871 13.4311 14.9297 13.4757 14.7908 13.5568C14.6515 13.6379 14.7254 13.6217 13.8104 14.6595C13.7483 14.7808 13.6208 14.8567 13.4836 14.8541H13.4182C13.32 14.8378 13.2289 14.7926 13.1568 14.7244L12.83 14.5947C12.1288 14.3 11.4867 13.8826 10.9346 13.3622C10.8039 13.2325 10.6078 13.1028 10.4771 12.973C9.9932 12.513 9.57536 11.9892 9.23525 11.4163L9.16987 11.2866C9.11309 11.2073 9.069 11.1198 9.03916 11.0271C9.02207 10.9148 9.04519 10.8 9.10451 10.7028C9.16399 10.6055 9.36596 10.3785 9.56203 10.1839C9.75811 9.98929 9.75811 9.85957 9.88883 9.72982C9.95601 9.63723 10.0024 9.53143 10.025 9.41955C10.0475 9.30766 10.0457 9.19228 10.0195 9.08117C9.71494 8.24185 9.36588 7.4191 8.9738 6.61634C8.86871 6.45413 8.70498 6.33806 8.51629 6.29201H7.79733C7.66662 6.29201 7.53591 6.35687 7.40517 6.35687L7.33982 6.42173C7.20911 6.48659 7.07839 6.61634 6.94766 6.6812C6.81695 6.74606 6.75159 6.94066 6.62088 7.07039C6.16396 7.64341 5.91115 8.35049 5.90192 9.08117C5.90916 9.59516 6.02029 10.1025 6.2287 10.5731L6.29408 10.7676C6.88095 12.0129 7.70171 13.1356 8.71238 14.0757L8.9738 14.3352C9.16405 14.4916 9.3391 14.6653 9.49667 14.8541C10.8509 16.0236 12.4594 16.8669 14.196 17.319C14.3921 17.3838 14.6535 17.3838 14.8496 17.4487H15.5032C15.8448 17.432 16.1789 17.3435 16.4836 17.1892C16.6437 17.1172 16.7966 17.0303 16.9411 16.9298L17.0718 16.8C17.2025 16.6703 17.3332 16.6055 17.4639 16.4757C17.5917 16.3628 17.7018 16.2316 17.7907 16.0865C17.9162 15.7959 18.0045 15.4911 18.0522 15.1784V14.7244C17.9935 14.672 17.9274 14.6283 17.8561 14.5947" fill="white"/>
</svg>
